<?xml version="1.0" encoding="UTF-8"?>
<svg version="1.1" xmlns="http://www.w3.org/2000/svg" width="50" height="33">
<path d="M0 0 C16.5 0 33 0 50 0 C50 10.89 50 21.78 50 33 C33.5 33 17 33 0 33 C0 22.11 0 11.22 0 0 Z " fill="#EBFCDA" transform="translate(0,0)"/>
<path d="M0 0 C16.5 0 33 0 50 0 C50 13 50 13 47 19 C46.01 19.33 45.02 19.66 44 20 C43.29925156 16.846632 43 14.27275026 43 11 C38.71 10.34 34.42 9.68 30 9 C30 6.69 30 4.38 30 2 C26.7 2 23.4 2 20 2 C20 4.31 20 6.62 20 9 C14.06 9.495 14.06 9.495 8 10 C8 13.3 8 16.6 8 20 C6.35 20.66 4.7 21.32 3 22 C2.67 24.31 2.34 26.62 2 29 C5.3 29 8.6 29 12 29 C12 26.69 12 24.38 12 22 C12.66 22 13.32 22 14 22 C14 24.31 14 26.62 14 29 C17.3 29 20.6 29 24 29 C24 26.69 24 24.38 24 22 C26 24 26 24 26.125 27.125 C26.08375 28.07375 26.0425 29.0225 26 30 C27.32 30.33 28.64 30.66 30 31 C28.02 31 26.04 31 24 31 C24 31.66 24 32.32 24 33 C16.08 33 8.16 33 0 33 C0 22.11 0 11.22 0 0 Z " fill="#F3F5F7" transform="translate(0,0)"/>
<path d="M0 0 C3.3 0 6.6 0 10 0 C10 2.31 10 4.62 10 7 C11.546875 6.938125 11.546875 6.938125 13.125 6.875 C16.86829627 6.99575149 19.53734547 7.64872018 23 9 C23.33 11.64 23.66 14.28 24 17 C24.99 16.67 25.98 16.34 27 16 C28.22969878 12.48809191 28.22969878 12.48809191 29 9 C29.33 9 29.66 9 30 9 C30 16.26 30 23.52 30 31 C21.42 31 12.84 31 4 31 C4 29 4 29 6 27 C8.3828125 26.8046875 8.3828125 26.8046875 11.125 26.875 C12.03507812 26.89304687 12.94515625 26.91109375 13.8828125 26.9296875 C14.58148438 26.95289062 15.28015625 26.97609375 16 27 C16 24.69 16 22.38 16 20 C15.34 19.67 14.68 19.34 14 19 C14.33 18.67 14.66 18.34 15 18 C14.34 17.34 13.68 16.68 13 16 C15.97 16 18.94 16 22 16 C22 14.35 22 12.7 22 11 C18.7 11 15.4 11 12 11 C12 12.65 12 14.3 12 16 C11.34 16 10.68 16 10 16 C10 14.35 10 12.7 10 11 C6.7 11 3.4 11 0 11 C0 10.34 0 9.68 0 9 C-2.64 9 -5.28 9 -8 9 C-7.67 8.34 -7.34 7.68 -7 7 C-4.69 7 -2.38 7 0 7 C0 4.69 0 2.38 0 0 Z " fill="#E9F7D7" transform="translate(20,2)"/>
<path d="M0 0 C2.5 1.0625 2.5 1.0625 4 2 C4 4.31 4 6.62 4 9 C0.7 9 -2.6 9 -6 9 C-6.33 7.35 -6.66 5.7 -7 4 C-7.33 5.65 -7.66 7.3 -8 9 C-11.3 9 -14.6 9 -18 9 C-18 6.69 -18 4.38 -18 2 C-18.66 2 -19.32 2 -20 2 C-20 4.31 -20 6.62 -20 9 C-23.3 9 -26.6 9 -30 9 C-30 6.69 -30 4.38 -30 2 C-27.36 2 -24.72 2 -22 2 C-22 1.34 -22 0.68 -22 0 C-21.15695313 0.01160156 -20.31390625 0.02320312 -19.4453125 0.03515625 C-18.34960938 0.04417969 -17.25390625 0.05320312 -16.125 0.0625 C-14.48917969 0.07990234 -14.48917969 0.07990234 -12.8203125 0.09765625 C-1.49086623 -0.2946376 -1.49086623 -0.2946376 0 0 Z " fill="#D5EBC0" transform="translate(32,20)"/>
<path d="M0 0 C1.65 0 3.3 0 5 0 C4.85941524 2.45873768 4.71277001 4.91685175 4.5625 7.375 C4.50352539 8.42300781 4.50352539 8.42300781 4.44335938 9.4921875 C4.11328125 14.7734375 4.11328125 14.7734375 3 17 C3.99 16.67 4.98 16.34 6 16 C6 16.66 6 17.32 6 18 C6.66 18 7.32 18 8 18 C7.67 18.99 7.34 19.98 7 21 C4.9375 21.6875 4.9375 21.6875 3 22 C2.67 24.31 2.34 26.62 2 29 C5.3 29 8.6 29 12 29 C12 26.69 12 24.38 12 22 C12.66 22 13.32 22 14 22 C14 24.31 14 26.62 14 29 C17.3 29 20.6 29 24 29 C24 26.69 24 24.38 24 22 C26 24 26 24 26.125 27.125 C26.08375 28.07375 26.0425 29.0225 26 30 C27.32 30.33 28.64 30.66 30 31 C28.02 31 26.04 31 24 31 C24 31.66 24 32.32 24 33 C16.08 33 8.16 33 0 33 C0 22.11 0 11.22 0 0 Z " fill="#F1F6F0" transform="translate(0,0)"/>
<path d="M0 0 C0.33 0 0.66 0 1 0 C1 7.26 1 14.52 1 22 C-0.98 22 -2.96 22 -5 22 C-5 21.34 -5 20.68 -5 20 C-6.98 19.34 -8.96 18.68 -11 18 C-11 15.69 -11 13.38 -11 11 C-8.03 11 -5.06 11 -2 11 C-1.93941406 10.28972656 -1.87882812 9.57945313 -1.81640625 8.84765625 C-1.73261719 7.92855469 -1.64882813 7.00945313 -1.5625 6.0625 C-1.48128906 5.14597656 -1.40007813 4.22945312 -1.31640625 3.28515625 C-1 1 -1 1 0 0 Z " fill="#DAECC7" transform="translate(49,11)"/>
<path d="M0 0 C1.65 0 3.3 0 5 0 C4.67 5.94 4.34 11.88 4 18 C2.68 18 1.36 18 0 18 C0 12.06 0 6.12 0 0 Z " fill="#E7F0E5" transform="translate(0,0)"/>
<path d="M0 0 C0.66 0 1.32 0 2 0 C2 2.31 2 4.62 2 7 C5.3 7 8.6 7 12 7 C12 4.69 12 2.38 12 0 C14 2 14 2 14.125 5.125 C14.08375 6.07375 14.0425 7.0225 14 8 C15.32 8.33 16.64 8.66 18 9 C9.09 9 0.18 9 -9 9 C-9.33 8.34 -9.66 7.68 -10 7 C-6.7 7 -3.4 7 0 7 C0 4.69 0 2.38 0 0 Z " fill="#F2FEE1" transform="translate(12,22)"/>
<path d="M0 0 C-0.33 0.99 -0.66 1.98 -1 3 C-7.6 3 -14.2 3 -21 3 C-21 1 -21 1 -19 -1 C-12.3976784 -2.54761414 -6.43475983 -1.88069068 0 0 Z " fill="#E1F1D0" transform="translate(45,30)"/>
<path d="M0 0 C3.3 0 6.6 0 10 0 C10 2.31 10 4.62 10 7 C6.7 7 3.4 7 0 7 C0 4.69 0 2.38 0 0 Z " fill="#9CBF77" transform="translate(20,2)"/>
<path d="M0 0 C4.95 0 9.9 0 15 0 C14.10429689 4.47851553 13.74999027 5.77175056 11 9 C11 6.69 11 4.38 11 2 C7.7 2 4.4 2 1 2 C1 4.31 1 6.62 1 9 C0.01 9 -0.98 9 -2 9 C-1.125 2.25 -1.125 2.25 0 0 Z " fill="#F1FAEA" transform="translate(19,0)"/>
<path d="M0 0 C3.3 0 6.6 0 10 0 C10 1.65 10 3.3 10 5 C6.7 5 3.4 5 0 5 C0 3.35 0 1.7 0 0 Z " fill="#83AA51" transform="translate(14,24)"/>
<path d="M0 0 C3.3 0 6.6 0 10 0 C10 1.65 10 3.3 10 5 C6.7 5 3.4 5 0 5 C0 3.35 0 1.7 0 0 Z " fill="#84A955" transform="translate(2,24)"/>
<path d="M0 0 C3.3 0 6.6 0 10 0 C10 1.65 10 3.3 10 5 C6.7 5 3.4 5 0 5 C0 3.35 0 1.7 0 0 Z " fill="#81AD4B" transform="translate(38,24)"/>
<path d="M0 0 C3.3 0 6.6 0 10 0 C10 1.65 10 3.3 10 5 C6.7 5 3.4 5 0 5 C0 3.35 0 1.7 0 0 Z " fill="#87AC5E" transform="translate(26,24)"/>
<path d="M0 0 C3.3 0 6.6 0 10 0 C10 1.65 10 3.3 10 5 C6.7 5 3.4 5 0 5 C0 3.35 0 1.7 0 0 Z " fill="#7FA74D" transform="translate(20,13)"/>
<path d="M0 0 C3.3 0 6.6 0 10 0 C10 1.65 10 3.3 10 5 C6.7 5 3.4 5 0 5 C0 3.35 0 1.7 0 0 Z " fill="#80A64E" transform="translate(32,13)"/>
<path d="M0 0 C3.3 0 6.6 0 10 0 C10 1.65 10 3.3 10 5 C6.7 5 3.4 5 0 5 C0 3.35 0 1.7 0 0 Z " fill="#7FA64D" transform="translate(8,13)"/>
<path d="M0 0 C0.66 0 1.32 0 2 0 C2 2.97 2 5.94 2 9 C0.02 9 -1.96 9 -4 9 C-4 8.34 -4 7.68 -4 7 C-5.65 6.67 -7.3 6.34 -9 6 C-9 5.67 -9 5.34 -9 5 C-6.03 5 -3.06 5 0 5 C0 3.35 0 1.7 0 0 Z " fill="#D7F0BA" transform="translate(48,24)"/>
<path d="M0 0 C2.97 0.495 2.97 0.495 6 1 C6.33 3.64 6.66 6.28 7 9 C7.99 9 8.98 9 10 9 C10 9.99 10 10.98 10 12 C8.68 12 7.36 12 6 12 C4.39274365 8.78548731 4.94251815 5.56387464 5 2 C3.35 2 1.7 2 0 2 C0 1.34 0 0.68 0 0 Z " fill="#F0FBE8" transform="translate(37,10)"/>
<path d="M0 0 C2.64 0 5.28 0 8 0 C8 0.99 8 1.98 8 3 C5.36 3 2.72 3 0 3 C0 2.01 0 1.02 0 0 Z " fill="#7CAA45" transform="translate(27,25)"/>
<path d="M0 0 C0.66 0 1.32 0 2 0 C2.22786458 2.01822917 2.45572917 4.03645833 2.68359375 6.0546875 C2.91292961 8.07404316 2.91292961 8.07404316 4 10 C2.35 9.67 0.7 9.34 -1 9 C-0.67 6.03 -0.34 3.06 0 0 Z " fill="#F2FBE8" transform="translate(18,11)"/>
</svg>
